<svg xmlns="http://www.w3.org/2000/svg" version="1.1" xmlns:xlink="http://www.w3.org/1999/xlink" width="1000" height="1000"><metadata><rdf:RDF xmlns:rdf="http://www.w3.org/1999/02/22-rdf-syntax-ns#" xmlns:dc="http://purl.org/dc/elements/1.1/"><rdf:Description><dc:creator>RealFaviconGenerator</dc:creator><dc:source>https://realfavicongenerator.net</dc:source></rdf:Description></rdf:RDF></metadata><style>
    #light-icon {
      display: inline;
    }
    #dark-icon {
      display: none;
    }

    @media (prefers-color-scheme: dark) {
      #light-icon {
        display: none;
      }
      #dark-icon {
        display: inline;
      }
    }
  </style><g id="light-icon"><svg xmlns="http://www.w3.org/2000/svg" version="1.1" xmlns:xlink="http://www.w3.org/1999/xlink" width="1000" height="1000"><g><g transform="matrix(18.51851851851852,0,0,18.51851851851852,0,18.518518518518476)"><svg xmlns="http://www.w3.org/2000/svg" width="54" height="52" viewBox="0 0 54 52" fill="none"><path d="M0 38C0 36.8954 0.895431 36 2 36H10C11.1046 36 12 36.8954 12 38V50C12 51.1046 11.1046 52 10 52H2C0.895431 52 0 51.1046 0 50V38Z" fill="url(#paint0_linear_208_578)"></path><path d="M14 26C14 24.8954 14.8954 24 16 24H24C25.1046 24 26 24.8954 26 26V50C26 51.1046 25.1046 52 24 52H16C14.8954 52 14 51.1046 14 50V26Z" fill="url(#paint1_linear_208_578)"></path><path d="M28 14C28 12.8954 28.8954 12 30 12H38C39.1046 12 40 12.8954 40 14V50C40 51.1046 39.1046 52 38 52H30C28.8954 52 28 51.1046 28 50V14Z" fill="url(#paint2_linear_208_578)"></path><path d="M42 2C42 0.895432 42.8954 0 44 0H52C53.1046 0 54 0.895431 54 2V50C54 51.1046 53.1046 52 52 52H44C42.8954 52 42 51.1046 42 50V2Z" fill="url(#paint3_linear_208_578)"></path><defs>
<linearGradient id="paint0_linear_208_578" x1="0" y1="44" x2="12" y2="44" gradientUnits="userSpaceOnUse">
<stop stop-color="#FF8906"></stop>
<stop offset="0.25" stop-color="#EA7D03"></stop>
<stop offset="0.5" stop-color="#E07702"></stop>
<stop offset="0.677885" stop-color="#DB7401"></stop>
<stop offset="0.822115" stop-color="#D87200"></stop>
<stop offset="1" stop-color="#D67000"></stop>
</linearGradient>
<linearGradient id="paint1_linear_208_578" x1="14" y1="38" x2="26" y2="38" gradientUnits="userSpaceOnUse">
<stop stop-color="#FF8906"></stop>
<stop offset="0.25" stop-color="#EA7D03"></stop>
<stop offset="0.5" stop-color="#E07702"></stop>
<stop offset="0.677885" stop-color="#DB7401"></stop>
<stop offset="0.822115" stop-color="#D87200"></stop>
<stop offset="1" stop-color="#D67000"></stop>
</linearGradient>
<linearGradient id="paint2_linear_208_578" x1="28" y1="32" x2="40" y2="32" gradientUnits="userSpaceOnUse">
<stop stop-color="#FF8906"></stop>
<stop offset="0.25" stop-color="#EA7D03"></stop>
<stop offset="0.5" stop-color="#E07702"></stop>
<stop offset="0.677885" stop-color="#DB7401"></stop>
<stop offset="0.822115" stop-color="#D87200"></stop>
<stop offset="1" stop-color="#D67000"></stop>
</linearGradient>
<linearGradient id="paint3_linear_208_578" x1="42" y1="26" x2="54" y2="26" gradientUnits="userSpaceOnUse">
<stop stop-color="#FF8906"></stop>
<stop offset="0.25" stop-color="#EA7D03"></stop>
<stop offset="0.5" stop-color="#E07702"></stop>
<stop offset="0.677885" stop-color="#DB7401"></stop>
<stop offset="0.822115" stop-color="#D87200"></stop>
<stop offset="1" stop-color="#D67000"></stop>
</linearGradient>
</defs></svg></g></g></svg></g><g id="dark-icon"><svg xmlns="http://www.w3.org/2000/svg" version="1.1" xmlns:xlink="http://www.w3.org/1999/xlink" width="1000" height="1000"><g clip-path="url(#SvgjsClipPath1059)"><rect width="1000" height="1000" fill="#0f0e17"></rect><g transform="matrix(11.11111111111111,0,0,11.11111111111111,200,211.11111111111114)"><svg xmlns="http://www.w3.org/2000/svg" width="54" height="52" viewBox="0 0 54 52" fill="none"><path d="M0 38C0 36.8954 0.895431 36 2 36H10C11.1046 36 12 36.8954 12 38V50C12 51.1046 11.1046 52 10 52H2C0.895431 52 0 51.1046 0 50V38Z" fill="url(#paint0_linear_208_578)"></path><path d="M14 26C14 24.8954 14.8954 24 16 24H24C25.1046 24 26 24.8954 26 26V50C26 51.1046 25.1046 52 24 52H16C14.8954 52 14 51.1046 14 50V26Z" fill="url(#paint1_linear_208_578)"></path><path d="M28 14C28 12.8954 28.8954 12 30 12H38C39.1046 12 40 12.8954 40 14V50C40 51.1046 39.1046 52 38 52H30C28.8954 52 28 51.1046 28 50V14Z" fill="url(#paint2_linear_208_578)"></path><path d="M42 2C42 0.895432 42.8954 0 44 0H52C53.1046 0 54 0.895431 54 2V50C54 51.1046 53.1046 52 52 52H44C42.8954 52 42 51.1046 42 50V2Z" fill="url(#paint3_linear_208_578)"></path><defs>
<linearGradient id="paint0_linear_208_578" x1="0" y1="44" x2="12" y2="44" gradientUnits="userSpaceOnUse">
<stop stop-color="#FF8906"></stop>
<stop offset="0.25" stop-color="#EA7D03"></stop>
<stop offset="0.5" stop-color="#E07702"></stop>
<stop offset="0.677885" stop-color="#DB7401"></stop>
<stop offset="0.822115" stop-color="#D87200"></stop>
<stop offset="1" stop-color="#D67000"></stop>
</linearGradient>
<linearGradient id="paint1_linear_208_578" x1="14" y1="38" x2="26" y2="38" gradientUnits="userSpaceOnUse">
<stop stop-color="#FF8906"></stop>
<stop offset="0.25" stop-color="#EA7D03"></stop>
<stop offset="0.5" stop-color="#E07702"></stop>
<stop offset="0.677885" stop-color="#DB7401"></stop>
<stop offset="0.822115" stop-color="#D87200"></stop>
<stop offset="1" stop-color="#D67000"></stop>
</linearGradient>
<linearGradient id="paint2_linear_208_578" x1="28" y1="32" x2="40" y2="32" gradientUnits="userSpaceOnUse">
<stop stop-color="#FF8906"></stop>
<stop offset="0.25" stop-color="#EA7D03"></stop>
<stop offset="0.5" stop-color="#E07702"></stop>
<stop offset="0.677885" stop-color="#DB7401"></stop>
<stop offset="0.822115" stop-color="#D87200"></stop>
<stop offset="1" stop-color="#D67000"></stop>
</linearGradient>
<linearGradient id="paint3_linear_208_578" x1="42" y1="26" x2="54" y2="26" gradientUnits="userSpaceOnUse">
<stop stop-color="#FF8906"></stop>
<stop offset="0.25" stop-color="#EA7D03"></stop>
<stop offset="0.5" stop-color="#E07702"></stop>
<stop offset="0.677885" stop-color="#DB7401"></stop>
<stop offset="0.822115" stop-color="#D87200"></stop>
<stop offset="1" stop-color="#D67000"></stop>
</linearGradient>
<clipPath id="SvgjsClipPath1059"><rect width="1000" height="1000" x="0" y="0" rx="150" ry="150"></rect></clipPath></defs></svg></g></g></svg></g></svg>